Third.Reich.The.Rise.and.Fall.2010.DVDRip.XviD-THC




THIRD REICH: THE RISE & FALL tells the story of Hitler's Germany through rarely seen films of the people who were there... 

General
Format : AVI
Format/Info : Audio Video Interleave
Format profile : OpenDML
Format settings : rec
File size : 1.39 GiB
Duration : 1h 27mn
Overall bit rate : 2 289 Kbps
Writing application : AVI-Mux GUI 1.17.8.3, Feb 16 201019:42:50

Video
ID : 0
Format : MPEG-4 Visual
Format profile : Advanced Simple@L5
Format settings, BVOP : 2
Format settings, QPel : Yes
Format settings, GMC : No warppoints
Format settings, Matrix : Default (H.263)
Codec ID : XVID
Codec ID/Hint : XviD
Duration : 1h 27mn
Bit rate : 2 090 Kbps
Width : 640 pixels
Height : 480 pixels
Display aspect ratio : 4:3
Frame rate : 29.970 fps
Color space : YUV
Chroma subsampling : 4:2:0
Bit depth : 8 bits
Scan type : Progressive
Compression mode : Lossy
Bits/(Pixel*Frame) : 0.227
Stream size : 1.27 GiB (91%)
Writing library : XviD 1.2.1 (UTC 2008-12-04)

Audio
ID : 1
Format : AC-3
Format/Info : Audio Coding 3
Mode extension : CM (complete main)
Codec ID : 2000
Duration : 1h 27mn
Bit rate mode : Constant
Bit rate : 192 Kbps
Channel(s) : 2 channels
Channel positions : Front: L R
Sampling rate : 48.0 KHz
Bit depth : 16 bits
Compression mode : Lossy
Stream size : 120 MiB (8%)
Alignment : Aligned on interleaves
Interleave, duration : 64 ms (1.92 video frames)
Interleave, preload duration : 192 ms
Title : VTS_01_1 T80 2_0ch 224Kbps DELAY 0ms_new